M48
; DRILL file {KiCad (5.1.5)-3} date 30/04/2021 11:05:53
; FORMAT={3:3/ absolute / metric / suppress leading zeros}
; #@! TF.CreationDate,2021-04-30T11:05:53+08:00
; #@! TF.GenerationSoftware,Kicad,Pcbnew,(5.1.5)-3
FMAT,2
METRIC,TZ
T1C0.250
T2C0.254
T3C0.400
T4C0.600
T5C1.000
T6C1.900
T7C2.200
T8C0.650
%
G90
G05
T1
X1155Y29261
X1155Y28162
X1155Y27063
X1155Y25965
X1155Y24866
X1155Y23767
X1155Y22669
X1155Y21570
X3305Y29261
X3305Y28162
X3305Y27063
X3305Y25965
X3305Y24866
X3305Y23767
X3305Y22669
X3305Y21570
X9055Y29261
X9055Y28162
X9055Y27063
X9055Y25965
X9055Y24866
X9055Y23767
X9055Y22669
X9055Y21570
X11300Y30150
X11300Y29613
X11300Y29075
X11300Y28538
X11300Y28000
X11300Y27463
X11300Y26925
X11300Y26388
X11300Y25850
X11850Y30150
X11850Y25850
X12200Y35270
X12200Y34770
X12400Y30150
X12400Y25850
X12700Y35270
X12700Y34770
X12950Y30150
X12950Y25850
X13200Y35270
X13200Y34770
X13500Y30150
X13500Y25850
X13700Y35280
X13700Y34780
X14050Y30150
X14050Y25850
X14200Y35280
X14200Y34780
X14500Y44000
X14600Y30150
X14600Y25850
X14700Y35280
X14700Y34780
X15150Y30150
X15150Y25850
X15700Y30150
X15700Y29613
X15700Y29075
X15700Y28538
X15700Y28000
X15700Y27463
X15700Y26925
X15700Y26388
X15700Y25850
X16650Y24500
X16650Y23600
X16650Y22600
X16650Y21700
X16650Y20800
X17700Y52900
X17950Y49825
X18050Y46275
X18225Y52900
X18225Y24500
X18225Y23600
X18225Y22600
X18225Y21700
X18225Y20800
X18550Y49825
X18600Y40400
X18750Y52900
X18950Y39300
X18950Y38800
X18950Y34650
X18950Y34150
X19450Y39300
X19450Y38800
X19450Y34650
X19450Y34150
X19550Y50750
X19550Y48900
X19700Y27450
X19950Y39300
X19950Y38800
X19950Y34650
X19950Y34150
X20000Y53175
X20000Y52675
X20200Y28650
X20500Y53175
X20500Y52675
X20650Y33690
X21000Y53175
X21000Y52675
X21075Y37875
X21150Y33690
X21250Y29950
X21250Y28650
X21250Y27450
X21650Y33690
X21800Y35425
X22000Y50500
X22085Y45365
X22085Y44865
X22085Y44365
X22450Y28650
X22450Y27450
X22475Y34275
X22575Y35475
X22630Y32155
X22635Y45365
X22635Y44865
X22635Y44365
X23200Y23200
X23200Y22400
X23200Y21600
X23200Y20800
X23250Y50370
X23321Y34121
X23910Y35360
X23930Y34790
X24150Y50370
X24576Y34135
X24680Y53240
X24722Y52310
X24800Y23200
X24800Y22400
X24800Y21600
X24800Y20800
X24901Y45549
X25500Y49800
X25714Y45755
X26000Y49800
X26150Y34950
X26225Y23200
X26225Y22400
X26225Y21600
X26225Y20800
X26251Y45325
X26500Y49800
X26758Y45682
X26950Y52260
X26960Y32020
X26970Y53230
X27175Y33395
X27250Y45300
X27752Y45683
X28275Y45350
X28500Y28600
X29125Y50600
X29290Y33220
X29360Y32015
X29550Y29900
X29550Y28600
X29550Y27400
X29700Y35210
X29700Y40200
X29750Y45345
X29900Y33215
X29910Y32015
X30075Y50600
X30250Y45345
X30460Y32015
X30750Y45345
X30750Y28600
X30750Y27400
X30992Y50592
X31321Y33486
X31550Y23200
X31550Y22400
X31550Y21600
X31550Y20800
X32125Y51650
X32125Y51100
X32125Y50550
X32248Y40200
X32900Y35000
X33100Y23200
X33100Y22400
X33100Y21600
X33100Y20800
X34650Y23200
X34650Y22400
X34650Y21600
X34650Y20800
X34840Y50460
X35075Y52450
X35075Y51900
X35075Y51350
X35222Y44705
X35300Y35210
X35475Y32650
X35625Y52450
X35625Y51900
X35625Y51350
X35781Y44972
X36250Y27400
X36300Y28600
X36430Y44690
X36970Y45750
X37420Y48490
X37800Y29900
X37800Y28600
X37800Y27400
X37850Y41100
X38150Y41910
X38150Y39100
X38275Y49075
X38300Y46600
X38388Y15213
X38400Y32700
X38700Y44600
X38700Y38500
X38700Y36373
X39100Y32000
X39100Y28600
X39100Y27400
X39340Y38435
X39400Y15225
X39450Y36000
X39525Y19150
X39650Y23200
X39650Y22400
X39650Y21600
X39650Y20800
X40400Y40100
X40750Y33500
X41150Y23200
X41150Y22400
X41150Y21600
X41150Y20800
X41300Y33850
X41750Y49350
X41760Y37420
X41800Y23200
X41800Y22400
X41800Y21600
X41800Y20800
X41900Y34712
X42275Y19125
X42550Y49250
X42975Y28900
X42975Y28350
X43025Y33620
X43025Y29725
X43050Y35850
X43660Y39330
X43700Y29650
X43750Y25200
X43835Y47385
X43950Y49500
X43982Y53468
X44000Y45975
X44000Y33400
X44000Y32900
X44100Y45250
X44400Y29650
X44500Y33400
X44500Y32900
X44600Y46950
X44600Y44800
X44650Y35350
X44750Y49450
X44750Y38050
X44750Y28400
X44750Y27150
X44750Y25900
X44780Y40820
X44823Y53780
X45050Y29650
X45100Y46325
X45150Y35830
X45365Y40614
X45450Y28400
X45450Y27150
X45450Y25900
X45600Y49175
X45600Y46950
X45700Y29650
X45985Y40600
X46225Y35850
X46600Y46950
X46650Y40800
X47050Y52175
X47175Y35825
X47300Y43245
X47300Y21800
X47300Y21100
X47300Y20400
X47300Y19700
X47300Y19000
X47340Y45830
X47400Y53810
X47760Y46950
X47774Y51888
X48000Y21800
X48000Y21100
X48000Y20400
X48000Y19700
X48000Y19000
X48030Y45920
X48200Y35800
X48250Y40600
X48575Y49250
X48600Y46950
X48700Y21800
X48700Y21100
X48700Y20400
X48700Y19700
X48700Y19000
X48750Y35200
X48750Y51875
X49239Y41021
X49300Y35850
X49387Y42040
X49400Y21800
X49400Y21100
X49400Y20400
X49400Y19700
X49400Y19000
X49500Y34025
X49748Y40584
X50075Y36625
X50075Y34025
X50080Y37364
X50100Y21800
X50100Y21100
X50100Y20400
X50100Y19700
X50100Y19000
X50350Y46850
X50500Y35150
X50607Y47418
X50740Y33840
X50800Y21800
X50800Y21100
X50800Y20400
X50800Y19700
X50800Y19000
X51225Y47600
X51250Y35800
X51275Y49400
X51425Y34700
X51650Y41930
X51700Y44240
X51700Y43300
X52000Y47250
X52000Y45275
X52000Y29000
X52000Y28200
X52000Y27500
X52000Y26700
X52000Y25900
X52000Y25100
X52050Y49475
X52384Y45762
X52400Y46750
X52400Y44750
X52424Y43773
X52650Y29000
X52650Y28200
X52650Y27500
X52650Y26700
X52650Y25900
X52650Y25100
X52700Y33125
X52925Y49550
X53000Y37050
X53100Y33700
X53420Y40450
X53600Y15325
X53700Y33100
X53800Y38700
X53950Y37275
X54100Y51450
X54350Y23200
X54350Y22400
X54350Y21600
X54350Y20800
X54500Y49375
X54600Y51450
X54600Y19100
X54600Y15325
X55000Y23200
X55000Y22400
X55000Y21600
X55000Y20800
X55100Y51450
X55120Y35330
X55140Y34660
X55200Y43700
X55575Y54600
X56050Y32000
X56150Y50100
X56375Y51500
X56420Y47270
X56500Y23200
X56500Y22400
X56500Y21600
X56500Y20800
X56523Y19523
X56575Y54600
X56600Y32000
X56910Y39220
X56920Y32900
X57000Y34725
X57000Y34225
X57010Y37320
X57410Y39220
X57500Y34725
X57500Y34225
X57510Y37320
X57800Y49750
X57825Y44425
X57910Y39220
X58000Y34725
X58000Y34225
X58010Y37320
X58050Y27450
X58550Y28650
X59000Y48800
X59000Y48250
X59000Y47700
X59000Y47150
X59055Y35275
X59100Y37875
X59350Y46750
X59575Y34250
X59600Y29950
X59600Y28650
X59600Y27450
X60207Y35471
X60350Y32850
X60360Y34550
X60800Y28650
X60850Y27450
X60860Y34550
X61000Y35460
X61030Y50600
X61400Y23200
X61400Y22400
X61400Y21600
X61400Y20800
X61805Y34525
X61950Y32635
X62025Y50600
X62233Y45747
X62940Y50550
X63250Y23200
X63250Y22400
X63250Y21600
X63250Y20800
X63275Y32750
X64440Y48170
X64600Y51300
X64800Y23200
X64800Y22400
X64800Y21600
X64800Y20800
X65100Y51300
X65150Y32950
X65300Y50400
X65310Y48020
X65550Y54550
X65600Y51300
X67225Y35050
X67240Y45670
X67350Y32725
X67350Y31550
X67740Y45670
X67750Y40500
X67900Y32725
X67900Y31525
X67900Y29900
X67900Y28600
X67900Y27400
X68250Y45675
X68450Y32725
X68475Y31525
X69000Y28600
X69000Y27400
X69025Y29875
X69675Y23200
X69675Y22400
X69675Y21600
X69675Y20800
X69700Y51975
X69700Y51425
X70100Y50250
X70254Y40482
X70275Y51975
X70275Y51425
X70600Y35100
X70600Y33000
X71275Y51025
X71275Y50525
X71275Y50025
X71525Y23200
X71525Y22400
X71525Y21600
X71525Y20800
X71850Y51025
X71850Y50525
X71850Y50025
X72400Y51025
X72400Y50525
X72400Y50025
X72950Y50525
X72950Y50025
X73100Y23200
X73100Y22400
X73100Y21600
X73100Y20800
X73475Y51900
X73475Y51375
X73860Y35490
X73860Y37820
X74600Y27425
X74810Y35490
X74990Y50840
X75200Y28600
X76150Y46300
X76250Y29900
X76250Y28600
X76250Y27400
X76405Y44990
X76405Y43890
X76407Y44440
X76407Y43340
X76415Y42800
X76417Y42250
X76475Y38250
X76525Y51950
X76525Y51425
X76850Y47000
X76950Y48100
X77005Y44990
X77005Y44440
X77005Y43890
X77005Y43340
X77015Y42800
X77015Y42250
X77058Y38250
X77450Y29900
X77450Y28600
X77450Y27400
X77525Y48850
X77642Y38250
X77975Y24400
X77975Y23500
X77975Y22600
X77975Y21600
X77975Y20700
X78225Y38250
X78825Y38250
X79408Y38250
X79550Y24400
X79550Y23500
X79550Y22600
X79550Y21600
X79550Y20700
X79791Y28085
X79795Y31385
X79795Y30835
X79795Y27535
X79801Y26995
X79801Y25895
X79805Y30295
X79805Y29745
X79805Y29195
X79805Y28645
X79805Y26445
X79805Y25345
X79992Y38250
X80393Y31385
X80393Y28085
X80395Y30835
X80395Y27535
X80403Y30295
X80403Y29195
X80403Y26995
X80403Y25895
X80405Y29745
X80405Y28645
X80405Y26445
X80405Y25345
X80575Y38250
X80961Y25895
X80965Y26445
X80965Y25345
X80971Y28085
X80975Y31385
X80975Y30835
X80975Y27535
X80981Y26995
X80985Y30295
X80985Y29745
X80985Y29195
X80985Y28645
X81192Y38250
X81563Y25895
X81565Y26445
X81565Y25345
X81573Y31385
X81573Y28085
X81575Y30835
X81575Y27535
X81583Y30295
X81583Y29195
X81583Y26995
X81585Y29745
X81585Y28645
X81775Y38250
X82020Y44955
X82020Y43855
X82024Y44405
X82024Y43305
X82030Y42765
X82034Y42215
X82620Y44955
X82620Y43855
X82622Y44405
X82622Y43305
X82630Y42765
X82632Y42215
X82959Y39490
X83220Y44955
X83220Y44405
X83220Y43855
X83220Y43305
X83230Y42765
X83230Y42215
X83557Y39490
X84155Y39490
T2
X64244Y44181
X64244Y43394
X64244Y42606
X64244Y41819
X65032Y44181
X65032Y43394
X65032Y42606
X65032Y41819
X65819Y44181
X65819Y43394
X65819Y42606
X65819Y41819
X66606Y44181
X66606Y43394
X66606Y42606
X66606Y41819
X67394Y44181
X67394Y43394
X67394Y42606
X67394Y41819
X68181Y44181
X68181Y43394
X68181Y42606
X68181Y41819
X68969Y44181
X68969Y43394
X68969Y42606
X68969Y41819
X69756Y44181
X69756Y43394
X69756Y42606
X69756Y41819
X26244Y44181
X26244Y43394
X26244Y42606
X26244Y41819
X27032Y44181
X27032Y43394
X27032Y42606
X27032Y41819
X27819Y44181
X27819Y43394
X27819Y42606
X27819Y41819
X28606Y44181
X28606Y43394
X28606Y42606
X28606Y41819
X29394Y44181
X29394Y43394
X29394Y42606
X29394Y41819
X30181Y44181
X30181Y43394
X30181Y42606
X30181Y41819
X30969Y44181
X30969Y43394
X30969Y42606
X30969Y41819
X31756Y44181
X31756Y43394
X31756Y42606
X31756Y41819
T3
X79850Y52000
X80333Y53167
X80333Y50833
X81500Y53650
X81500Y50350
X82667Y53167
X82667Y50833
X83150Y52000
X12850Y15000
X13333Y16167
X13333Y13833
X14500Y16650
X14500Y13350
X15667Y16167
X15667Y13833
X16150Y15000
X12850Y52000
X13333Y53167
X13333Y50833
X14500Y53650
X14500Y50350
X15667Y53167
X15667Y50833
X16150Y52000
X79850Y15000
X80333Y16167
X80333Y13833
X81500Y16650
X81500Y13350
X82667Y16167
X82667Y13833
X83150Y15000
T5
X60500Y3500
X73500Y3500
X22500Y3500
X35500Y3500
X3500Y31000
X3500Y20000
T6
X63500Y13500
X67000Y13500
X70500Y13500
X25500Y13500
X29000Y13500
X32500Y13500
X13500Y28000
X13500Y23000
T7
X81500Y52000
X14500Y15000
X14500Y52000
X81500Y15000
T8
X15600Y45890
X15600Y40110
T4
G00X12250Y47320
M15
G01X11650Y47320
M16
G05
G00X12250Y38680
M15
G01X11650Y38680
M16
G05
G00X16680Y47320
M15
G01X15580Y47320
M16
G05
G00X16680Y38680
M15
G01X15580Y38680
M16
G05
T5
G00X46300Y13450
M15
G01X46300Y15150
M16
G05
G00X49700Y15150
M15
G01X49700Y13450
M16
G05
T0
M30
