%TF.GenerationSoftware,KiCad,Pcbnew,(5.1.5)-3*%
%TF.CreationDate,2021-04-30T11:05:51+08:00*%
%TF.ProjectId,bldc_motor_cntroller,626c6463-5f6d-46f7-946f-725f636e7472,rev?*%
%TF.SameCoordinates,PX57bcf00PY69db9c0*%
%TF.FileFunction,Profile,NP*%
%FSLAX46Y46*%
G04 Gerber Fmt 4.6, Leading zero omitted, Abs format (unit mm)*
G04 Created by KiCad (PCBNEW (5.1.5)-3) date 2021-04-30 11:05:51*
%MOMM*%
%LPD*%
G04 APERTURE LIST*
%TA.AperFunction,Profile*%
%ADD10C,0.300000*%
%TD*%
G04 APERTURE END LIST*
D10*
X85500000Y52000000D02*
X85500000Y15000000D01*
X0Y31000000D02*
G75*
G02X2000000Y33000000I2000000J0D01*
G01*
X2000000Y18000000D02*
G75*
G02X0Y20000000I0J2000000D01*
G01*
X10500000Y35000000D02*
G75*
G02X8500000Y33000000I-2000000J0D01*
G01*
X8500000Y18000000D02*
G75*
G02X10500000Y16000000I0J-2000000D01*
G01*
X10500000Y15000000D02*
X10500000Y16000000D01*
X10500000Y52000000D02*
X10500000Y35000000D01*
X2000000Y33000000D02*
X8500000Y33000000D01*
X0Y20000000D02*
X0Y31000000D01*
X8500000Y18000000D02*
X2000000Y18000000D01*
X81500000Y56000000D02*
G75*
G02X85500000Y52000000I0J-4000000D01*
G01*
X81500000Y11000000D02*
X77500000Y11000000D01*
X75500000Y2000000D02*
G75*
G02X73500000Y0I-2000000J0D01*
G01*
X60500000Y0D02*
G75*
G02X58500000Y2000000I0J2000000D01*
G01*
X56500000Y11000000D02*
G75*
G02X58500000Y9000000I0J-2000000D01*
G01*
X75500000Y9000000D02*
G75*
G02X77500000Y11000000I2000000J0D01*
G01*
X56500000Y11000000D02*
X39500000Y11000000D01*
X58500000Y2000000D02*
X58500000Y9000000D01*
X73500000Y0D02*
X60500000Y0D01*
X75500000Y9000000D02*
X75500000Y2000000D01*
X37500000Y2000000D02*
G75*
G02X35500000Y0I-2000000J0D01*
G01*
X22500000Y0D02*
G75*
G02X20500000Y2000000I0J2000000D01*
G01*
X37500000Y9000000D02*
G75*
G02X39500000Y11000000I2000000J0D01*
G01*
X18500000Y11000000D02*
G75*
G02X20500000Y9000000I0J-2000000D01*
G01*
X14500000Y11000000D02*
X18500000Y11000000D01*
X37500000Y2000000D02*
X37500000Y9000000D01*
X22500000Y0D02*
X35500000Y0D01*
X20500000Y9000000D02*
X20500000Y2000000D01*
X85500000Y15000000D02*
G75*
G02X81500000Y11000000I-4000000J0D01*
G01*
X14500000Y11000000D02*
G75*
G02X10500000Y15000000I0J4000000D01*
G01*
X10500000Y52000000D02*
G75*
G02X14500000Y56000000I4000000J0D01*
G01*
X81500000Y56000000D02*
X14500000Y56000000D01*
M02*
